<?xml version="1.0" standalone="no"?>
<!DOCTYPE svg PUBLIC "-//W3C//DTD SVG 1.1//EN" "http://www.w3.org/Graphics/SVG/1.1/DTD/svg11.dtd" >
<svg xmlns="http://www.w3.org/2000/svg">
<metadata>Generated by IcoMoon</metadata>
<defs>
<font id="tvz-icons" horiz-adv-x="1024">
<font-face units-per-em="1024" ascent="960" descent="-64" />
<missing-glyph horiz-adv-x="1024" />
<glyph unicode="&#x20;" horiz-adv-x="512" d="" />
<glyph unicode="&#xe900;" glyph-name="clock" d="M536.381 489.503v324.211h-58.514l-39.010-390.095h49.656l-1.618-2.227 259.178-141.025 11.465 15.78-213.319 204.144-7.838-10.788zM512-64c-282.77 0-512 229.23-512 512s229.23 512 512 512c282.77 0 512-229.23 512-512s-229.23-512-512-512z" />
<glyph unicode="&#xe901;" glyph-name="drop" horiz-adv-x="658" d="M658.286 448l-658.286-512v1024z" />
<glyph unicode="&#xe902;" glyph-name="play" horiz-adv-x="922" d="M908.506 436.613c24.685-13.338 24.787-34.907 0-48.3l-863.809-466.729c-24.685-13.338-44.696-1.678-44.696 26.931v927.896c0 28.211 19.909 40.324 44.696 26.931l863.809-466.729z" />
<glyph unicode="&#xe903;" glyph-name="set" horiz-adv-x="1408" d="M64 704h1024c35.346 0 64-28.654 64-64v-640c0-35.346-28.654-64-64-64h-1024c-35.346 0-64 28.654-64 64v640c0 35.346 28.654 64 64 64v0zM768 320l-384 192v-384l384 192zM1286.095 192h67.048c30.297 0 54.857 24.56 54.857 54.857v658.286c0 30.297-24.56 54.857-54.857 54.857h-1042.286c-30.297 0-54.857-24.56-54.857-54.857v-73.143h969.143c33.663 0 60.952-28.654 60.952-64v-576z" />
<glyph unicode="&#xe904;" glyph-name="burger" d="M28.444 874.667h853.333c15.709 0 28.444-12.735 28.444-28.444v-85.333c0-15.709-12.735-28.444-28.444-28.444h-853.333c-15.709 0-28.444 12.735-28.444 28.444v85.333c0 15.709 12.735 28.444 28.444 28.444v0zM28.444 504.889h967.111c15.709 0 28.444-12.735 28.444-28.444v-85.333c0-15.709-12.735-28.444-28.444-28.444h-967.111c-15.709 0-28.444 12.735-28.444 28.444v85.333c0 15.709 12.735 28.444 28.444 28.444v0zM28.444 135.111h853.333c15.709 0 28.444-12.735 28.444-28.444v-85.333c0-15.709-12.735-28.444-28.444-28.444h-853.333c-15.709 0-28.444 12.735-28.444 28.444v85.333c0 15.709 12.735 28.444 28.444 28.444v0z" />
<glyph unicode="&#xe905;" glyph-name="lock" horiz-adv-x="745" d="M124.121 463.515v-279.273c0-68.55 55.571-124.121 124.121-124.121h248.242c68.55 0 124.121 55.571 124.121 124.121v279.273h-496.485zM93.091 587.636v93.091c0 154.238 125.035 279.273 279.273 279.273s279.273-125.035 279.273-279.273v-93.091h62.061c17.138 0 31.030-13.893 31.030-31.030v-372.364c0-137.101-111.142-248.242-248.242-248.242h-248.242c-137.101 0-248.242 111.142-248.242 248.242v372.364c0 17.138 13.893 31.030 31.030 31.030h62.061zM217.212 587.636h310.303v93.091c0 85.688-69.464 155.152-155.152 155.152s-155.152-69.464-155.152-155.152v-93.091zM310.303 308.364v-62.061c0-34.275 27.785-62.061 62.061-62.061s62.061 27.785 62.061 62.061v62.061c0 34.275-27.785 62.061-62.061 62.061s-62.061-27.785-62.061-62.061z" />
<glyph unicode="&#xe906;" glyph-name="search" horiz-adv-x="996" d="M379.77 266.111l-295.581-325.139-84.189 76.535 298.864 328.75c-47.909 64.066-76.28 143.591-76.28 229.743 0 212.077 171.923 384 384 384s384-171.923 384-384c0-212.077-171.923-384-384-384-84.844 0-163.261 27.516-226.814 74.111zM606.584 305.778c149.24 0 270.222 120.983 270.222 270.222s-120.983 270.222-270.222 270.222c-149.24 0-270.222-120.983-270.222-270.222s120.983-270.222 270.222-270.222z" />
<glyph unicode="&#xe907;" glyph-name="back" horiz-adv-x="1280" d="M146.868 675.599l151.733 227.599-85.202 56.801-204.8-307.2c-11.465-17.198-11.465-39.603 0-56.801l204.8-307.2 85.202 56.801-151.733 227.599h779.471c138.601 0 251.261-114.415 251.261-256 0-141.556-112.683-256-251.261-256h-320.69v-102.4h320.69c195.49 0 353.661 160.643 353.661 358.4 0 197.788-158.148 358.4-353.661 358.4h-779.471z" />
<glyph unicode="&#xe908;" glyph-name="hd" horiz-adv-x="2010" d="M645.166-63.818h177.675v1019.449h-177.675v-416.518h-466.034v416.518h-179.132v-1019.449h179.132v435.45h466.034v-435.45zM1125.601-63.818v1019.449h18.933c61.167 0 206.802 4.369 281.077 4.369 407.78 0 572.348-234.473 572.348-503.899 0-286.902-195.152-522.832-583.999-522.832-61.167 0-174.763 2.913-267.969 2.913h-20.389zM1422.698 792.519c-42.234 0-77.187-1.456-117.965-4.369v-684.487c49.516-2.913 90.294-2.913 115.052-2.913 246.124 0 388.847 139.81 388.847 355.351 0 205.346-142.723 336.418-385.934 336.418z" />
<glyph unicode="&#xe909;" glyph-name="hint" d="M1024 448c0-282.77-229.23-512-512-512s-512 229.23-512 512c0 282.77 229.23 512 512 512s512-229.23 512-512z" />
<glyph unicode="&#xe90a;" glyph-name="info" d="M542.98 574.7h34.2l-49.78-262.96c-1.52-8.107-2.597-14.693-3.23-19.76s-0.95-9.247-0.95-12.54c0-13.933 3.293-24.51 9.88-31.73s16.087-10.83 28.5-10.83c5.573 0 12.92 0.887 22.040 2.66s19.633 4.56 31.54 8.36v-31.92c-26.347-10.64-50.287-18.367-71.82-23.18s-41.927-7.22-61.18-7.22c-19 0-33.377 5.13-43.13 15.39s-14.63 25.27-14.63 45.030c0 5.067 0.507 11.337 1.52 18.81s2.913 18.683 5.7 33.63l41.8 209.38-63.84 9.88v27.36l133.38 29.64zM558.56 755.2c15.96 0 28.627-4.497 38-13.49s14.060-21.090 14.060-36.29c0-16.467-5.7-30.337-17.1-41.61s-25.46-16.91-42.18-16.91c-15.707 0-28.437 4.56-38.19 13.68s-14.63 20.9-14.63 35.34c0 16.973 5.7 31.097 17.1 42.37s25.713 16.91 42.94 16.91zM512 17.92c237.527 0 430.080 192.553 430.080 430.080s-192.553 430.080-430.080 430.080c-237.527 0-430.080-192.553-430.080-430.080s192.553-430.080 430.080-430.080zM512-64c-282.77 0-512 229.23-512 512s229.23 512 512 512c282.77 0 512-229.23 512-512s-229.23-512-512-512z" />
<glyph unicode="&#xe90b;" glyph-name="like" horiz-adv-x="1138" d="M604.989 779.515h-25.404l-76.359-225.606h23.098c-40.91-24.976-68.219-70.037-68.219-121.477v0-354.211c0-78.547 63.675-142.222 142.222-142.222v0h346.497c71.884 0 132.466 53.638 141.175 124.993l42.627 349.275c0.625 5.119 0.971 10.269 1.036 15.426 0.996 78.541-61.866 143.018-140.407 144.015v0l-292.179 3.706 52.318 206.101h-13.714c9.279 12.268 13.581 28.238 10.596 44.561l-16.324 89.268c-4.942 27.024-28.489 46.656-55.961 46.656v0h-25.633c-31.419 0-56.889-25.47-56.889-56.889v-89.268c0-12.895 4.29-24.787 11.521-34.328zM214.216 474.947h126.933c31.419 0 56.889-25.47 56.889-56.889v-399.012c0-31.419-25.47-56.889-56.889-56.889h-282.869c-31.419 0-56.889 25.47-56.889 56.889 0 7.085 1.324 14.108 3.903 20.707l155.936 399.012c8.527 21.82 29.559 36.181 52.986 36.181z" />
<glyph unicode="&#xe90c;" glyph-name="menu-addtv" horiz-adv-x="1280" d="M32 746.667h1130.667c17.673 0 32-14.327 32-32v-618.667c0-17.673-14.327-32-32-32h-1130.667c-17.673 0-32 14.327-32 32v618.667c0 17.673 14.327 32 32 32zM1109.333 661.333h-1024v-512h1024c0 47.128 38.205 85.333 85.333 85.333v341.333c-47.128 0-85.333 38.205-85.333 85.333zM298.667 21.333h597.333c23.564 0 42.667-19.103 42.667-42.667v-10.667c0-17.673-14.327-32-32-32h-618.667c-17.673 0-32 14.327-32 32v10.667c0 23.564 19.103 42.667 42.667 42.667zM1194.667 448v64c0 11.782-9.551 21.333-21.333 21.333h-42.667c-11.782 0-21.333-9.551-21.333-21.333v0-64h-64c-11.782 0-21.333-9.551-21.333-21.333v-42.667c0-11.782 9.551-21.333 21.333-21.333v0h64v-64c0-11.782 9.551-21.333 21.333-21.333h42.667c11.782 0 21.333 9.551 21.333 21.333v64h64c11.782 0 21.333 9.551 21.333 21.333v42.667c0 11.782-9.551 21.333-21.333 21.333h-64z" />
<glyph unicode="&#xe90d;" glyph-name="menu-bought" horiz-adv-x="853" d="M698.043 21.333l54.547 272.735c7.977 39.887 42.999 68.598 83.676 68.598h17.067l-80.188-400.942c-2.992-14.958-16.125-25.724-31.379-25.724h-630.199c-15.254 0-28.387 10.767-31.379 25.724l-80.188 400.942h17.067c40.677 0 75.699-28.711 83.676-68.598l54.547-272.735h542.753zM321.731 618.667h19.602c16.984 0 30.752-13.768 30.752-30.752 0-3.305-0.533-6.589-1.578-9.725l-57.254-171.761c-8.711-26.134-33.168-43.761-60.716-43.761h-39.205l78.040 234.119c4.356 13.067 16.584 21.881 30.358 21.881v0zM531.602 618.667v0c13.774 0 26.002-8.814 30.358-21.881l78.040-234.119h-39.205c-27.548 0-52.004 17.628-60.716 43.761l-57.254 171.761c-1.045 3.136-1.578 6.419-1.578 9.725 0 16.984 13.768 30.752 30.752 30.752h19.602zM245.333 277.333h21.333c17.673 0 32-14.327 32-32v-106.667c0-17.673-14.327-32-32-32h-21.333c-17.673 0-32 14.327-32 32v106.667c0 17.673 14.327 32 32 32zM586.667 277.333h21.333c17.673 0 32-14.327 32-32v-106.667c0-17.673-14.327-32-32-32h-21.333c-17.673 0-32 14.327-32 32v106.667c0 17.673 14.327 32 32 32zM416 277.333h21.333c17.673 0 32-14.327 32-32v-106.667c0-17.673-14.327-32-32-32h-21.333c-17.673 0-32 14.327-32 32v106.667c0 17.673 14.327 32 32 32z" />
<glyph unicode="&#xe90e;" glyph-name="menu-card" d="M64 618.667h896c35.346 0 64-28.654 64-64v-554.667c0-35.346-28.654-64-64-64h-896c-35.346 0-64 28.654-64 64v554.667c0 35.346 28.654 64 64 64zM85.333 533.333v-512h853.333v512h-853.333zM149.333 448h714.667c11.782 0 21.333-9.551 21.333-21.333v-128c0-11.782-9.551-21.333-21.333-21.333h-714.667c-11.782 0-21.333 9.551-21.333 21.333v128c0 11.782 9.551 21.333 21.333 21.333z" />
<glyph unicode="&#xe90f;" glyph-name="menu-email" horiz-adv-x="853" d="M554.667 547.997v60.003h10.667c41.237 0 74.667-33.429 74.667-74.667v-170.667h213.333v-21.333c0-120.136-94.575-218.183-213.333-223.751v-0.249h-10.667c-36.615 0-67.074 26.355-73.443 61.13-40.914-37.937-95.694-61.13-155.891-61.13-126.657 0-229.333 102.676-229.333 229.333v32c0 126.657 102.676 229.333 229.333 229.333 59.598 0 113.887-22.734 154.667-60.003v0zM405.333 522.667c-82.475 0-149.333-66.859-149.333-149.333v-10.667c0-82.475 66.859-149.333 149.333-149.333s149.333 66.859 149.333 149.333v10.667c0 82.475-66.859 149.333-149.333 149.333zM853.333 362.667h-85.333c0 188.513-152.82 341.333-341.333 341.333s-341.333-152.82-341.333-341.333c0-188.513 152.82-341.333 341.333-341.333 29.466 0 58.059 3.734 85.333 10.753v-87.552c-27.572-5.597-56.11-8.535-85.333-8.535-235.641 0-426.667 191.025-426.667 426.667s191.025 426.667 426.667 426.667c235.641 0 426.667-191.025 426.667-426.667zM640 362.667v-149.333c70.692 0 128 62.083 128 138.667v10.667h-128z" />
<glyph unicode="&#xe910;" glyph-name="menu-faq" horiz-adv-x="853" d="M426.667-64c-235.641 0-426.667 191.025-426.667 426.667s191.025 426.667 426.667 426.667c235.641 0 426.667-191.025 426.667-426.667s-191.025-426.667-426.667-426.667zM426.667 21.333c188.513 0 341.333 152.82 341.333 341.333s-152.82 341.333-341.333 341.333c-188.513 0-341.333-152.82-341.333-341.333s152.82-341.333 341.333-341.333zM469.333 181.333c0-29.455-23.878-53.333-53.333-53.333s-53.333 23.878-53.333 53.333c0 29.455 23.878 53.333 53.333 53.333s53.333-23.878 53.333-53.333zM446.092 407.934c1.144 0.855 4.967 3.704 5.517 4.114 26.158 19.526 32.523 27.45 33.721 42.822 3.935 50.5-3.174 57.13-56.51 57.13-28.598 0-46.211-13.639-58.958-48.634v0 0c-1.028-2.822-3.71-4.699-6.713-4.699h-49.733c-13.95 0-25.259 11.309-25.259 25.259 0 2.949 0.516 5.874 1.525 8.645v0c24.502 67.27 72.92 104.763 139.138 104.763 100.411 0 149.627-45.894 141.585-149.092-3.648-46.817-23.523-71.561-67.751-104.576-0.598-0.447-4.392-3.274-5.474-4.082-31.345-23.428-39.407-34.775-39.407-62.25h-85.333c0 60.42 22.923 92.683 73.653 130.601z" />
<glyph unicode="&#xe911;" glyph-name="menu-favs" horiz-adv-x="917" d="M452.961 67.903l-245.277-128.95c-15.643-8.224-34.991-2.21-43.215 13.433-3.275 6.229-4.405 13.364-3.215 20.3l46.844 273.12-198.433 193.425c-12.655 12.336-12.914 32.596-0.578 45.251 4.912 5.039 11.349 8.319 18.313 9.331l274.228 39.848 122.639 248.493c7.822 15.848 27.010 22.355 42.858 14.533 6.311-3.115 11.419-8.223 14.533-14.533l122.639-248.493 274.228-39.848c17.489-2.541 29.607-18.78 27.066-36.269-1.012-6.964-4.292-13.401-9.331-18.313l-198.433-193.425 46.844-273.12c2.988-17.419-8.711-33.961-26.13-36.949-6.936-1.19-14.071-0.060-20.3 3.215l-245.277 128.95zM426.889 156.517c15.694 8.377 34.533 8.377 50.227 0v0l147.23-78.585c2.194-1.171 4.727-1.539 7.163-1.040 5.771 1.182 9.491 6.819 8.309 12.59v0l-33.597 164.002c-3.82 18.647 2.587 37.916 16.812 50.563v0l118.008 104.912c1.79 1.591 2.992 3.739 3.413 6.097 1.036 5.799-2.826 11.34-8.625 12.376v0l-166.206 29.68c-16.453 2.938-30.577 13.419-38.157 28.314l-69.956 137.468c-1.023 2.011-2.658 3.645-4.669 4.669-5.25 2.672-11.672 0.582-14.344-4.669v0l-69.956-137.468c-7.58-14.895-21.704-25.376-38.157-28.314l-166.206-29.68c-2.358-0.421-4.505-1.623-6.097-3.413-3.914-4.403-3.518-11.145 0.885-15.059l118.007-104.912c14.225-12.647 20.632-31.916 16.812-50.563v0l-33.597-164.002c-0.499-2.436-0.131-4.97 1.040-7.163 2.774-5.197 9.236-7.161 14.433-4.387v0l147.23 78.585z" />
<glyph unicode="&#xe912;" glyph-name="menu-login" horiz-adv-x="853" d="M170.667 576v266.667c0 17.673 14.327 32 32 32h618.667c17.673 0 32-14.327 32-32v-874.667c0-17.673-14.327-32-32-32h-618.667c-17.673 0-32 14.327-32 32v266.667c47.128 0 85.333-38.205 85.333-85.333v-128h512v768h-512v-128c0-47.128-38.205-85.333-85.333-85.333zM503.348 448h-471.348c-17.673 0-32-14.327-32-32v-21.333c0-17.673 14.327-32 32-32h470.646l-65.395-58.501c-0.442-0.395-0.873-0.803-1.292-1.222-12.497-12.497-12.497-32.758 0-45.255l10.433-10.433c12.497-12.497 32.758-12.497 45.255 0l113.137 113.137c24.994 24.994 24.994 65.516 0 90.51l-113.137 113.137c-12.497 12.497-32.758 12.497-45.255 0l-10.433-10.433c-0.419-0.419-0.827-0.85-1.222-1.292-11.783-13.172-10.657-33.402 2.514-45.185l66.098-59.129z" />
<glyph unicode="&#xe913;" glyph-name="menu-parental" horiz-adv-x="779" d="M392.808 714.667c-96.837 0-191.381-16.211-280.75-47.538-10.629-44.184-16.058-89.771-16.058-136.112 0-212.6 115.438-404.599 296.808-506.123 181.37 101.524 296.808 293.523 296.808 506.123 0 46.341-5.429 91.928-16.058 136.112-89.368 31.327-183.913 47.538-280.75 47.538zM750.279 711.060c16.313-58.131 24.67-118.553 24.67-180.043 0-252.453-141.944-479.639-362.721-592.499-12.196-6.235-26.645-6.235-38.841 0-220.776 112.86-362.721 340.046-362.721 592.499 0 61.491 8.358 121.913 24.67 180.043 3.656 13.030 13.277 23.552 25.928 28.358 104.998 39.887 216.877 60.582 331.543 60.582s226.545-20.695 331.543-60.582c12.651-4.806 22.272-15.328 25.928-28.358z" />
<glyph unicode="&#xe914;" glyph-name="menu-phone" horiz-adv-x="683" d="M32 960h618.667c17.673 0 32-14.327 32-32v-960c0-17.673-14.327-32-32-32h-618.667c-17.673 0-32 14.327-32 32v960c0 17.673 14.327 32 32 32zM85.333 874.667v-853.333h512v853.333h-512zM341.333 149.333c23.564 0 42.667-19.103 42.667-42.667s-19.103-42.667-42.667-42.667c-23.564 0-42.667 19.103-42.667 42.667s19.103 42.667 42.667 42.667z" />
<glyph unicode="&#xe915;" glyph-name="menu-promo" horiz-adv-x="768" d="M32.593 277.333c-20.268 22.646-32.593 52.55-32.593 85.333v192c0 35.346 28.654 64 64 64h234.667c32.783 0 62.688-12.324 85.333-32.593 22.646 20.268 52.55 32.593 85.333 32.593h234.667c35.346 0 64-28.654 64-64v-192c0-32.783-12.324-62.688-32.593-85.333 20.268-22.646 32.593-52.55 32.593-85.333v-192c0-35.346-28.654-64-64-64h-234.667c-32.783 0-62.688 12.324-85.333 32.593-22.646-20.268-52.55-32.593-85.333-32.593h-234.667c-35.346 0-64 28.654-64 64v192c0 32.783 12.324 62.688 32.593 85.333zM85.333 533.333v-512h597.333v512h-597.333zM382.649 640h-169.315c-59.057 0-105.457 8.197-141.689 28.696-46.476 26.294-71.644 71.141-71.644 130.992 0 93.862 71.973 160.312 181.333 160.312 79.478 0 145.412-57.475 201.315-167.174 55.904 109.7 121.837 167.174 201.315 167.174 109.361 0 181.333-66.451 181.333-160.312 0-59.851-25.168-104.698-71.644-130.992-36.233-20.499-82.633-28.696-141.689-28.696h-169.315zM587.106 874.667c-45.399 0-93.214-47.618-139.106-149.333 28.017 0 49.186 0 107.106 0 91.908 0 128 20.419 128 74.354 0 45.145-32.314 74.979-96 74.979zM181.333 874.667c-63.686 0-96-29.834-96-74.979 0-53.935 36.092-74.354 128-74.354 57.92 0 79.089 0 107.106 0-45.892 101.715-93.706 149.333-139.106 149.333z" />
<glyph unicode="&#xe916;" glyph-name="menu-receipt" horiz-adv-x="864" d="M864 757.333v-730.196c0-16.974-6.743-33.253-18.745-45.255l-38.941-38.941c-12.497-12.497-32.758-12.497-45.255 0l-47.621 47.621c-8.331 8.331-21.839 8.331-30.17 0l-47.621-47.621c-12.497-12.497-32.758-12.497-45.255 0l-47.621 47.621c-8.331 8.331-21.839 8.331-30.17 0l-47.621-47.621c-12.497-12.497-32.758-12.497-45.255 0l-47.621 47.621c-8.331 8.331-21.839 8.331-30.17 0l-47.621-47.621c-12.497-12.497-32.758-12.497-45.255 0l-47.621 47.621c-8.331 8.331-21.839 8.331-30.17 0l-47.621-47.621c-12.497-12.497-32.758-12.497-45.255 0l-48.98 48.98c-12.002 12.002-18.745 28.281-18.745 45.255v720.157c0 17.673 14.327 32 32 32h789.333c17.673 0 32-14.327 32-32zM778.667 32v672h-682.667v-672l5.019-5.019 70.248 70.248c8.331 8.331 21.839 8.331 30.17 0l55.163-55.163c8.331-8.331 21.839-8.331 30.17 0l55.163 55.163c8.331 8.331 21.839 8.331 30.17 0l55.163-55.163c8.331-8.331 21.839-8.331 30.17 0l55.163 55.163c8.331 8.331 21.839 8.331 30.17 0l55.163-55.163c8.331-8.331 21.839-8.331 30.17 0l55.163 55.163c8.331 8.331 21.839 8.331 30.17 0l65.229-65.229zM213.333 448h448c17.673 0 32-14.327 32-32v-21.333c0-17.673-14.327-32-32-32h-448c-17.673 0-32 14.327-32 32v21.333c0 17.673 14.327 32 32 32zM544 320h117.333c17.673 0 32-14.327 32-32v-21.333c0-17.673-14.327-32-32-32h-117.333c-17.673 0-32 14.327-32 32v21.333c0 17.673 14.327 32 32 32zM213.333 320h224c17.673 0 32-14.327 32-32v-21.333c0-17.673-14.327-32-32-32h-224c-17.673 0-32 14.327-32 32v21.333c0 17.673 14.327 32 32 32z" />
<glyph unicode="&#xe917;" glyph-name="menu-recent" horiz-adv-x="907" d="M216.018 365.91c19.835 148.71 147.179 263.424 301.316 263.424 167.895 0 304-136.105 304-304s-136.105-304-304-304c-23.564 0-42.667-19.103-42.667-42.667s19.103-42.667 42.667-42.667c215.023 0 389.333 174.31 389.333 389.333s-174.31 389.333-389.333 389.333c-197.666 0-360.927-147.305-385.996-338.129l-54.388 60.797c-0.395 0.442-0.803 0.873-1.222 1.292-12.497 12.497-32.758 12.497-45.255 0l-10.433-10.433c-12.497-12.497-12.497-32.758 0-45.255l113.137-113.137c24.994-24.994 65.516-24.994 90.51 0l113.137 113.137c12.497 12.497 12.497 32.758 0 45.255l-10.433 10.433c-0.419 0.419-0.85 0.827-1.292 1.222-13.172 11.783-33.402 10.657-45.185-2.514l-63.895-71.425zM576 250.667v186.667c0 17.673-14.327 32-32 32h-21.333c-17.673 0-32-14.327-32-32v0-149.333h-96c-17.673 0-32-14.327-32-32v0-21.333c0-17.673 14.327-32 32-32v0h149.333c17.673 0 32 14.327 32 32v16z" />
<glyph unicode="&#xe918;" glyph-name="menu-wallet" horiz-adv-x="1067" d="M0 608v53.333h106.667c-11.782 0-21.333-9.551-21.333-21.333s9.551-21.333 21.333-21.333h853.333c35.346 0 64-28.654 64-64v-128c0-11.782-9.551-21.333-21.333-21.333h-42.667c-11.782 0-21.333 9.551-21.333 21.333v106.667h-853.333v-512h853.333v106.667c0 11.782 9.551 21.333 21.333 21.333h42.667c11.782 0 21.333-9.551 21.333-21.333v-128c0-35.346-28.654-64-64-64h-896c-35.346 0-64 28.654-64 64v608zM85.333 746.667h938.667c0-47.128-38.205-85.333-85.333-85.333h-938.667c0 47.128 38.205 85.333 85.333 85.333zM896 362.667h138.667c17.673 0 32-14.327 32-32v-74.667c0-35.346-28.654-64-64-64h-106.667c-47.128 0-85.333 38.205-85.333 85.333s38.205 85.333 85.333 85.333z" />
<glyph unicode="&#xe919;" glyph-name="moar" horiz-adv-x="1451" d="M170.667 277.333c-94.257 0-170.667 76.41-170.667 170.667s76.41 170.667 170.667 170.667c94.257 0 170.667-76.41 170.667-170.667s-76.41-170.667-170.667-170.667zM732.863 277.333c-94.257 0-170.667 76.41-170.667 170.667s76.41 170.667 170.667 170.667c94.257 0 170.667-76.41 170.667-170.667s-76.41-170.667-170.667-170.667zM1274.98 277.333c-94.257 0-170.667 76.41-170.667 170.667s76.41 170.667 170.667 170.667c94.257 0 170.667-76.41 170.667-170.667s-76.41-170.667-170.667-170.667z" />
<glyph unicode="&#xe91a;" glyph-name="player-forward" horiz-adv-x="1897" d="M887.054 408.413l-820.083-451.67c-21.855-12.037-49.329-4.078-61.366 17.777-3.677 6.676-5.605 14.173-5.605 21.795v903.341c0 24.95 20.226 45.176 45.176 45.176 7.621 0 15.119-1.928 21.795-5.605l820.083-451.67c21.855-12.037 29.814-39.511 17.777-61.366-4.124-7.488-10.289-13.653-17.777-17.777v0zM1847.913 408.413l-820.083-451.67c-21.855-12.037-49.329-4.078-61.366 17.777-3.677 6.676-5.605 14.173-5.605 21.795v903.341c0 24.95 20.226 45.176 45.176 45.176 7.621 0 15.119-1.928 21.795-5.605l820.083-451.67c21.855-12.037 29.814-39.511 17.777-61.366-4.124-7.488-10.289-13.653-17.777-17.777v0z" />
<glyph unicode="&#xe91b;" glyph-name="player-next" horiz-adv-x="1109" d="M863.371 412.325l-799.66-453.387c-20.499-11.622-46.538-4.426-58.16 16.072-3.638 6.417-5.551 13.667-5.551 21.044v906.773c0 23.564 19.103 42.667 42.667 42.667 7.376 0 14.627-1.912 21.044-5.551l799.66-453.387c20.499-11.622 27.694-37.661 16.072-58.16-3.806-6.712-9.36-12.267-16.072-16.072zM982.777 960h83.89c23.564 0 42.667-19.103 42.667-42.667v-938.667c0-23.564-19.103-42.667-42.667-42.667h-83.89c-23.564 0-42.667 19.103-42.667 42.667v938.667c0 23.564 19.103 42.667 42.667 42.667v0z" />
<glyph unicode="&#xe91c;" glyph-name="player-play" horiz-adv-x="945" d="M926.857 416.811l-874.569-472.267c-17.225-9.302-38.73-2.878-48.031 14.347-2.794 5.174-4.257 10.962-4.257 16.842v944.535c0 19.576 15.87 35.446 35.446 35.446 5.88 0 11.668-1.463 16.842-4.257l874.569-472.267c17.225-9.302 23.649-30.806 14.347-48.031-3.282-6.078-8.269-11.065-14.347-14.347z" />
<glyph unicode="&#xe91d;" glyph-name="player-prev" horiz-adv-x="1109" d="M245.963 412.325l799.66-453.387c20.499-11.622 46.538-4.426 58.16 16.072 3.638 6.417 5.551 13.667 5.551 21.044v906.773c0 23.564-19.103 42.667-42.667 42.667-7.376 0-14.627-1.912-21.044-5.551l-799.66-453.387c-20.499-11.622-27.694-37.661-16.072-58.16 3.806-6.712 9.36-12.267 16.072-16.072zM126.557 960h-83.89c-23.564 0-42.667-19.103-42.667-42.667v-938.667c0-23.564 19.103-42.667 42.667-42.667h83.89c23.564 0 42.667 19.103 42.667 42.667v938.667c0 23.564-19.103 42.667-42.667 42.667v0z" />
<glyph unicode="&#xe91e;" glyph-name="sd" horiz-adv-x="1719" d="M467.646 222.72c0-74.43-61.791-115.156-143.243-115.156-75.835 0-168.521 36.513-226.099 110.943l-98.304-117.965c47.748-99.708 195.204-154.478 321.595-154.478 183.969 0 328.616 112.347 328.616 278.060 0 327.212-445.177 262.612-445.177 466.242 0 64.6 51.961 108.134 137.626 108.134 78.643 0 126.391-26.683 174.139-73.026l92.687 129.2c-58.982 64.6-160.095 105.326-280.869 105.326-190.991 0-306.147-123.582-306.147-271.038 0-320.19 445.177-272.443 445.177-466.242zM869.132-38.488v983.040h18.256c58.982 0 199.417 4.213 271.038 4.213 393.216 0 551.907-226.099 551.907-485.903 0-276.656-188.182-504.159-563.141-504.159-58.982 0-168.521 2.809-258.399 2.809h-19.661zM1155.618 787.266c-40.726 0-74.43-1.404-113.752-4.213v-660.041c47.748-2.809 87.069-2.809 110.943-2.809 237.334 0 374.96 134.817 374.96 342.66 0 198.012-137.626 324.403-372.151 324.403z" />
<glyph unicode="&#xe91f;" glyph-name="subs" horiz-adv-x="1456" d="M45.511 960h1365.333c25.135 0 45.511-20.376 45.511-45.511v-932.978c0-25.135-20.376-45.511-45.511-45.511h-1365.333c-25.135 0-45.511 20.376-45.511 45.511v932.978c0 25.135 20.376 45.511 45.511 45.511v0zM336.487 391.111h806.629v113.778h-806.629v-113.778zM434.463 163.556h597.645v113.778h-597.645v-113.778z" />
<glyph unicode="&#xe920;" glyph-name="tofav" horiz-adv-x="996" d="M494.95 106.061l-272.461-143.241c-13.905-7.31-31.103-1.964-38.413 11.941-2.911 5.537-3.915 11.879-2.858 18.045l52.035 303.39-220.426 214.862c-11.249 10.965-11.479 28.974-0.514 40.223 4.366 4.48 10.088 7.395 16.278 8.294l304.621 44.264 136.231 276.033c6.952 14.087 24.008 19.871 38.096 12.919 5.61-2.769 10.15-7.309 12.919-12.919l136.231-276.033 304.621-44.264c15.546-2.259 26.318-16.693 24.059-32.239-0.9-6.191-3.815-11.912-8.294-16.278l-220.426-214.862 52.035-303.39c2.656-15.483-7.743-30.188-23.227-32.843-6.166-1.057-12.508-0.053-18.045 2.858l-272.461 143.241z" />
<glyph unicode="&#xe921;" glyph-name="trailer-off" horiz-adv-x="1195" d="M315.813 632.682l254.778 263.752c11.146 11.538 19.817 7.679 19.817-8.155v-883.479c0-16.082-8.873-19.486-19.817-8.155l-252.192 261.076c-1.982-0.211-4.046-0.208-6.17 0.029l-283.767 31.744c-15.719 1.758-28.461 15.897-28.461 31.868v247.53c0 15.842 12.529 30.086 28.461 31.868l283.767 31.744c1.214 0.136 2.411 0.194 3.585 0.178zM1053.842 454.277l121.723 121.723-80.453 80.453-121.723-121.723-121.723 121.723-80.453-80.453 121.723-121.723-121.723-121.723 80.453-80.453 121.723 121.723 121.723-121.723 80.453 80.453-121.723 121.723z" />
<glyph unicode="&#xe922;" glyph-name="trailer" horiz-adv-x="1252" d="M866.171 120.851c49.956 88.838 76.586 189.205 76.586 293.31 0 125.951-39.013 246.19-110.454 346.728l-92.747-65.905c57.87-81.44 89.423-178.687 89.423-280.824 0-84.442-21.539-165.623-61.981-237.542l99.173-55.768zM1115.422-89.947c81.944 145.723 125.618 310.332 125.618 481.155 0 206.661-63.983 403.859-181.182 568.792l-92.747-65.905c103.628-145.835 160.151-320.040 160.151-502.887 0-151.161-38.584-296.584-111.014-425.388l99.173-55.768zM315.813 632.682l254.778 263.752c11.146 11.538 19.817 7.679 19.817-8.155v-883.479c0-16.082-8.873-19.486-19.817-8.155l-252.192 261.076c-1.982-0.211-4.046-0.208-6.17 0.029l-283.767 31.744c-15.719 1.758-28.461 15.897-28.461 31.868v247.53c0 15.842 12.529 30.086 28.461 31.868l283.767 31.744c1.214 0.136 2.411 0.194 3.585 0.178z" />
<glyph unicode="&#xe923;" glyph-name="navarr-down" horiz-adv-x="2894" d="M2697.9 958.045l194.059-295.482-1424.696-680.087-1424.696 680.087 194.059 295.482 1230.637-505.68 1230.637 505.68z" />
<glyph unicode="&#xe924;" glyph-name="button-play-icon" d="M512-64c368.481 0 512 189.192 512 512s-147.615 512-512 512c-364.385 0-512-192.058-512-512s143.519-512 512-512z" />
<glyph unicode="&#xe925;" glyph-name="button-play" horiz-adv-x="853" d="M839.676 477.706c13.776-7.749 14.012-20.18 0-28.062l-814.732-458.287c-13.776-7.749-24.944-1.016-24.944 14.553v915.529c0 15.787 10.932 22.435 24.944 14.553l814.732-458.287z" />
<glyph unicode="&#xe926;" glyph-name="logo-tv" horiz-adv-x="1458" d="M528.231 710.558c0.625-2.951 1.089-7.685 1.401-14.195 0.634-17.729-0.161-35.162-2.339-52.308-1.571-11.228-4.222-22.607-7.962-34.139-3.749-11.819-7.793-20.688-12.166-26.598-12.488-17.137-25.904-29.853-40.257-38.13-19.352-10.94-45.711-17.585-79.095-19.944-12.809-0.888-31.527-1.184-56.172-0.888-23.092 0-39.168 0.44-48.219 1.327-0.312 0-0.928-19.657-1.874-58.962-0.312-52.029 0-101.683 0.946-148.96 0.616-27.494 1.392-54.684 2.339-81.578 0-0.888 0.143-1.775 0.464-2.655 0.625-13.012 2.651-24.248 6.079-33.708 4.061-10.627 9.979-19.352 17.79-26.15 15.915-15.074 38.24-22.616 66.946-22.616 35.883 0 67.080 2.215 93.609 6.645 2.178 0.296 4.213 0.6 6.079 0.896 11.863 1.175 20.753-0.896 26.689-6.206 0-0.296 0.143-0.448 0.464-0.448 3.124-2.951 5.615-7.533 7.489-13.739 1.241-4.726 2.178-11.98 2.803-21.728 0.946-9.757 1.41-17.738 1.41-23.943s-0.464-16.402-1.41-30.588c-0.928-17.442-5.293-33.252-13.095-47.438-8.123-14.779-20.45-28.078-36.981-39.897-7.177-5.030-14.987-9.604-23.404-13.739-33.714-15.675-80.353-23.943-139.953-24.839-48.683-0.592-95.34 7.541-139.962 24.383-44.934 17.146-81.594 46.263-109.997 87.344-14.353 20.392-25.118 44.336-32.295 71.821-6.855 26.006-11.229 58.522-13.104 97.531-5.936 140.7-5.936 303.839 0 489.458 0.928 21.28 3.588 39.314 7.953 54.084 4.365 14.195 11.39 28.526 21.066 43.008 18.718 28.086 42.283 52.317 70.677 72.709 19.343 13.891 41.658 26.006 66.937 36.354 23.092 9.452 48.21 14.779 75.355 15.962 13.425 1.184 23.726-1.327 30.893-7.533 6.239-5.622 8.899-18.177 7.962-37.69h0.464c-0.312-8.573-0.616-23.647-0.928-45.223-0.625-18.913-1.098-33.835-1.41-44.775-0.625-13.891-0.625-24.535 0-31.916 0.625-11.236 2.499-18.473 5.615-21.728 2.499-2.367 7.81-4.143 15.915-5.318 6.248-0.6 16.54-0.888 30.893-0.888 43.069-0.296 78.952 0 107.659 0.888 37.758 0.888 62.876-2.815 75.364-11.084 4.686-3.255 7.801-7.541 9.364-12.859zM1359.055 731.822c14.987-4.726 27.314-11.38 36.981-19.953 20.28-19.2 30.733-45.807 31.358-79.802-0.625-28.652-4.829-57.339-12.631-86-8.123-28.669-17.317-56.459-27.627-83.353-13.72-39.018-31.982-83.057-54.753-132.127-22.155-48.757-46.809-98.411-73.962-148.96-24.029-44.623-43.060-78.61-57.101-101.962-27.466-46.398-51.334-80.69-71.624-102.849-24.333-26.606-61.475-40.201-111.399-40.793-45.872-0.304-83.469 10.044-112.809 31.028-28.082 19.801-53.664 47.886-76.756 84.233-38.070 56.163-75.060 123.115-110.943 200.837-35.571 77.444-67.089 158.734-94.546 243.846-23.726 73.005-40.73 137.437-51.022 193.296-2.803 15.083 0.616 27.046 10.292 35.906 9.364 8.277 23.878 13.46 43.533 15.523 13.728 1.184 28.242 1.623 43.533 1.336 9.051-0.296 23.556-0.736 43.533-1.336 32.759-1.175 60.225-7.389 82.38-18.617 40.882-20.688 68.035-52.469 81.442-95.325 3.115-10.932 9.051-33.395 17.79-67.383 7.801-29.853 14.826-54.236 21.066-73.149 16.853-50.254 34.16-97.1 51.959-140.548 18.093-43.735 33.857-77.587 47.273-101.53 18.718 32.525 35.107 68.431 49.148 107.736 14.362 39.314 30.885 92.366 49.612 159.165 5.302 19.513 19.664 72.557 43.069 159.165 6.239 22.464 14.817 39.009 25.743 49.645 11.238 10.94 27.314 17.89 48.21 20.84 13.416 1.775 26.689 2.511 39.784 2.215 11.559 0 24.815-0.736 39.784-2.215 19.977-2.367 36.205-5.318 48.683-8.869z" />
<glyph unicode="&#xe927;" glyph-name="logo-zavr" horiz-adv-x="3041" d="M3040.083 593.303c3.49-22.791-3.327-37.525-20.453-44.21-14.569-5.772-33.752-5.016-57.523 2.277-9.175 2.729-21.55 5.163-37.062 7.293-15.222 2.13-28.694 3.19-40.416 3.19-7.924 0-15.385-0.296-22.348-0.913-10.462-1.208-20.299-3.338-29.473-6.389-17.742-5.763-33.916-15.49-48.503-29.154-11.405-10.344-20.117-24.165-26.146-41.489-5.702-17.011-9.338-37.829-10.924-62.446-4.442-69.904-6.509-141.304-6.183-214.233 0.326-62.907 2.375-133.863 6.183-212.868 0.952-18.532-5.857-32.823-20.453-42.845-14.261-10.031-34.224-15.203-59.899-15.499-63.38-0.617-112.98 14.273-148.799 44.67-17.751 14.881-30.743 34.344-38.983 58.335-8.241 22.791-13.146 52.424-14.741 88.888-6.337 134.011-6.337 251.619 0 352.807 1.596 29.78 4.914 55.91 9.991 78.397 6.020 26.138 14.732 49.538 26.137 70.2 24.723 44.053 60.234 79.005 106.507 104.839 45.321 26.138 100.305 39.351 164.955 39.663 31.694-0.313 61.802-3.807 90.333-10.492 5.385-1.208 10.934-2.582 16.636-4.103 35.502-10.022 65.13-24.313 88.9-42.854 19.646-15.49 36.137-34.943 49.437-58.335 12.058-21.583 19.646-43.158 22.828-64.732zM2383.738 699.949c10.517-10.189 18.589-21.536 24.162-34.048 5.874-13.969 8.054-28.812 6.504-44.529-1.861-20.953-5.582-42.631-11.155-65.041-4.031-16.291-9.445-34.931-16.268-55.876-9.295-28.529-19.502-57.774-30.657-87.751-13.636-36.662-25.562-65.915-35.787-87.743-21.983-48.308-46.606-97.341-73.869-147.115-23.843-43.938-42.592-77.42-56.219-100.396-27.574-45.694-51.417-79.46-71.557-101.279-24.153-26.198-61.013-39.584-110.578-40.167-45.543-0.291-82.712 9.898-111.508 30.56-27.884 19.497-53.437 47.293-76.669 83.38-37.781 55.293-74.498 121.066-110.108 197.313-16.117 34.922-32.527 74.065-49.264 117.429-12.387 32.6-27.263 73.482-44.603 122.673-24.472 69.844-41.183 133.287-50.168 190.328-2.49 15.134 0.921 26.922 10.216 35.355 9.286 8.441 23.542 13.536 42.743 15.284 13.317 1.157 27.875 1.598 43.673 1.307 10.845 0 25.252-0.441 43.212-1.307 16.728-0.874 31.446-2.622 44.151-5.236 13.929-3.205 26.315-7.575 37.161-13.095 40.882-20.096 67.835-51.372 80.851-93.861 3.402-10.764 9.436-32.891 18.111-66.356 7.753-29.386 14.717-53.253 20.911-71.593 16.737-49.474 33.918-95.593 51.585-138.382 17.96-43.080 33.599-76.538 46.916-100.405 17.34 32.017 36.407 75.081 57.15 129.216 8.364 23.284 21.841 67.805 40.43 133.579 5.564 19.205 19.821 71.451 42.734 156.721 6.512 22.993 15.027 39.717 25.562 50.198 11.767 11.646 27.724 18.056 47.864 19.213 12.688 0.583 26.174 0.866 40.412 0.866 8.045 0 20.902-0.283 38.569-0.866 36.85-1.157 65.363-10.631 85.494-28.379zM1551.102 535.979c7.208-30.585 11.592-66.070 13.161-106.447 1.255-36.521 1.255-77.349 0-122.482-1.569-51.368-4.868-94.123-9.871-128.266-5.639-38.602-14.425-70.665-26.332-96.213-25.39-54.035-67.384-92.331-125.992-114.898-58.625-21.972-138.543-32.513-239.773-31.621-41.376 0-82.751 4.748-124.109 14.252-41.698 9.496-79.927 24.342-114.722 44.531-35.1 19.603-63.467 45.431-85.1 77.502-21.93 32.954-33.056 71.556-33.369 115.798-1.264 88.186 33.692 154.545 104.833 199.092 70.845 44.531 182.098 66.8 333.802 66.8h48.423c-0.941 15.144-2.349 26.431-4.232 33.846-7.208 31.476-21.947 52.565-44.191 63.25-36.041 17.216-78.358 24.495-126.942 21.819-50.771-2.675-94.496-8.612-131.165-17.819-37.305-9.198-69.429-21.972-96.379-38.296-16.299-10.099-29.147-12.765-38.552-8.009-10.023 4.748-15.044 17.36-15.044 37.855-0.305 22.567 2.663 44.981 8.93 67.25 6.903 24.639 16.299 44.089 28.205 58.341 24.135 29.395 62.059 53.746 113.781 73.043 51.39 18.702 116.757 28.215 196.039 28.512 77.112 0 144.488-12.477 202.162-37.422 57.047-25.234 101.077-63.241 132.106-114.015 15.053-24.648 26.493-53.44 34.329-86.403zM1296.884 221.943v66.822h-60.839c-57.377 0-99.088-7.367-125.14-22.111-25.722-15.070-38.248-37.679-37.598-67.818 0-28.463 9.404-49.903 28.203-64.302 19.11-14.744 49.784-22.111 91.994-22.111 28.363-0.671 52.265 7.195 71.724 23.615 20.11 17.082 30.665 45.717 31.655 85.906zM742.817 130.778c9.422-9.142 14.919-24.194 16.482-45.155 0.629-7.083 0.943-13.127 0.943-18.15 0-5.014-0.314-11.658-0.943-19.914-1.877-30.99-15.225-56.661-40.033-77.023-12.243-10.046-27-17.559-44.273-22.582-15.386-4.432-33.917-7.083-55.581-7.969-68.139-2.651-142.403-3.985-222.793-3.985-64.052 0.295-139.259 1.621-225.604 3.985-19.788 0.591-34.078 1.173-42.872 1.773-15.063 1.469-28.258 4.136-39.557 7.969-25.123 8.256-45.845 22.134-62.174 41.601-3.144 3.849-5.973 7.978-8.479 12.401-10.365 18.006-15.853 40.293-16.482 66.842 0 18.884 5.488 39.693 16.482 62.427 2.506 5.31 5.335 10.62 8.479 15.921 16.33 28.93 44.273 62.714 83.839 101.378 39.566 38.959 72.225 70.101 97.968 93.409 25.428 23.316 59.668 54.011 102.684 92.083 42.701 38.36 67.824 61.676 75.36 69.94 9.422 11.219 4.716 17.407-14.129 18.597-15.072 1.469-46.474 2.507-94.205 3.090-113.355 0-184.323-0.878-212.895-2.659-20.722-1.173-36.432 1.486-47.102 7.978-11.623 6.787-17.587 18.15-17.901 34.080-0.305 25.975 1.734 47.519 6.126 64.631 2.829 10.628 6.755 19.771 11.776 27.453 2.192 3.537 4.545 6.787 7.069 9.733 15.692 18.884 35.165 32.906 58.393 42.057 19.797 7.969 43.348 12.688 70.654 14.165 122.463 6.492 263.931 6.492 424.397 0 25.734-1.182 48.351-4.871 67.815-11.067 20.722-6.196 38.309-15.499 52.761-27.892 30.458-25.967 46.15-61.237 47.102-105.793-0.952-28.339-12.871-59.473-35.803-93.409-22.608-33.345-52.599-69.054-89.965-107.127-26.057-26.566-71.435-71.131-136.115-133.693-59.668-57.843-89.66-86.908-89.974-87.204-4.707-5.318-5.65-9.75-2.82-13.279 2.82-3.25 8.326-5.023 16.482-5.31 12.871-0.304 55.429 0 127.645 0.886 79.133 1.173 132.675 2.507 160.619 3.976 21.351 0.591 36.89-4.136 46.626-14.165z" />
<glyph unicode="&#xe928;" glyph-name="tvzavr" horiz-adv-x="4541" d="M4540.335 599.654c3.475-23.012-3.312-37.888-20.362-44.637-14.504-5.828-33.603-5.064-57.268 2.299-9.134 2.756-21.454 5.213-36.897 7.363-15.154 2.15-28.566 3.221-40.237 3.221-7.888 0-15.317-0.298-22.248-0.922-10.416-1.22-20.209-3.37-29.343-6.451-17.663-5.819-33.765-15.64-48.288-29.436-11.354-10.444-20.028-24.398-26.030-41.89-5.677-17.175-9.296-38.195-10.876-63.050-4.423-70.58-6.48-142.669-6.156-216.303 0.325-63.515 2.365-135.156 6.156-214.925 0.948-18.711-5.831-33.14-20.362-43.259-14.197-10.128-34.072-15.35-59.633-15.648-63.099-0.623-112.478 14.411-148.139 45.102-17.672 15.025-30.606 34.676-38.811 58.898-8.204 23.012-13.087 52.93-14.676 89.747-6.309 135.306-6.309 254.050 0 356.216 1.589 30.068 4.892 56.45 9.946 79.154 5.993 26.391 14.667 50.017 26.021 70.878 24.613 44.479 59.967 79.769 106.034 105.852 45.12 26.391 99.86 39.731 164.223 40.047 31.554-0.316 61.528-3.844 89.932-10.593 5.361-1.22 10.885-2.607 16.562-4.142 35.345-10.119 64.841-24.548 88.506-43.268 19.559-15.64 35.976-35.281 49.217-58.898 12.004-21.792 19.559-43.575 22.727-65.358zM3886.902 707.331c10.471-10.288 18.507-21.744 24.055-34.377 5.848-14.104 8.018-29.090 6.475-44.959-1.852-21.156-5.557-43.043-11.106-65.669-4.014-16.449-9.403-35.268-16.196-56.415-9.253-28.804-19.415-58.332-30.521-88.599-13.576-37.016-25.449-66.552-35.628-88.59-21.885-48.775-46.399-98.282-73.542-148.536-23.738-44.362-42.403-78.168-55.97-101.366-27.451-46.136-51.189-80.227-71.239-102.257-24.046-26.451-60.742-39.967-110.087-40.555-45.34-0.294-82.345 9.994-111.014 30.855-27.76 19.685-53.2 47.75-76.329 84.186-37.613 55.827-74.168 122.236-109.62 199.219-16.046 35.26-32.382 74.781-49.045 118.563-12.332 32.915-27.143 74.192-44.405 123.858-24.364 70.519-41 134.575-49.945 192.167-2.479 15.281 0.917 27.182 10.171 35.697 9.245 8.523 23.438 13.667 42.553 15.432 13.258 1.168 27.751 1.614 43.479 1.32 10.797 0 25.14-0.445 43.021-1.32 16.654-0.883 31.306-2.648 43.956-5.287 13.867-3.236 26.199-7.649 36.996-13.221 40.701-20.29 67.534-51.868 80.493-94.768 3.387-10.868 9.394-33.209 18.030-66.998 7.718-29.67 14.652-53.768 20.818-72.284 16.663-49.952 33.767-96.516 51.356-139.719 17.88-43.497 33.45-77.277 46.708-101.375 17.263 32.326 36.246 75.806 56.896 130.465 8.327 23.509 21.744 68.46 40.251 134.869 5.54 19.391 19.733 72.141 42.544 158.235 6.484 23.215 14.961 40.101 25.449 50.683 11.714 11.759 27.601 18.231 47.652 19.399 12.632 0.588 26.058 0.874 40.233 0.874 8.010 0 20.809-0.286 38.398-0.874 36.687-1.168 65.073-10.733 85.115-28.653zM3057.96 541.776c7.176-30.88 11.541-66.708 13.103-107.475 1.25-36.874 1.25-78.096 0-123.666-1.562-51.864-4.847-95.033-9.827-129.506-5.614-38.975-14.361-71.347-26.215-97.142-25.278-54.557-67.086-93.223-125.433-116.008-58.365-22.185-137.929-32.827-238.709-31.926-41.192 0-82.384 4.794-123.558 14.39-41.513 9.587-79.573 24.577-114.213 44.961-34.944 19.792-63.185 45.87-84.723 78.251-21.832 33.273-32.909 72.248-33.221 116.917-1.259 89.038 33.543 156.038 104.368 201.016 70.531 44.961 181.29 67.446 332.322 67.446h48.208c-0.937 15.29-2.339 26.687-4.213 34.173-7.176 31.78-21.85 53.073-43.995 63.861-35.881 17.382-78.011 24.731-126.379 22.030-50.546-2.701-94.077-8.695-130.583-17.991-37.14-9.287-69.121-22.185-95.951-38.666-16.227-10.196-29.017-12.889-38.38-8.087-9.979 4.794-14.977 17.528-14.977 38.221-0.303 22.785 2.651 45.415 8.89 67.9 6.873 24.877 16.227 44.515 28.080 58.904 24.028 29.679 61.784 54.265 113.276 73.748 51.162 18.883 116.239 28.487 195.169 28.788 76.77 0 143.847-12.597 201.266-37.783 56.794-25.478 100.628-63.852 131.52-115.116 14.986-24.886 26.375-53.956 34.176-87.238zM2804.87 224.706v67.468h-60.569c-57.123 0-98.648-7.438-124.585-22.325-25.608-15.215-38.079-38.043-37.431-68.474 0-28.738 9.362-50.386 28.078-64.924 19.025-14.886 49.563-22.325 91.586-22.325 28.237-0.677 52.033 7.264 71.406 23.843 20.021 17.247 30.529 46.159 31.515 86.736zM2253.261 132.66c9.38-9.231 14.853-24.428 16.409-45.592 0.626-7.151 0.939-13.254 0.939-18.325 0-5.063-0.313-11.771-0.939-20.107-1.869-31.289-15.157-57.209-39.856-77.767-12.188-10.143-26.881-17.729-44.077-22.8-15.318-4.475-33.766-7.151-55.335-8.046-67.836-2.676-141.771-4.023-221.805-4.023-63.767 0.298-138.641 1.636-224.604 4.023-19.7 0.597-33.927 1.185-42.682 1.79-14.996 1.483-28.132 4.176-39.382 8.046-25.012 8.336-45.641 22.348-61.899 42.003-3.13 3.887-5.947 8.055-8.442 12.521-10.319 18.18-15.783 40.682-16.409 67.488 0 19.067 5.464 40.077 16.409 63.030 2.495 5.361 5.312 10.722 8.442 16.075 16.257 29.21 44.077 63.32 83.467 102.357 39.391 39.335 71.905 70.778 97.534 94.311 25.316 23.542 59.404 54.533 102.228 92.973 42.512 38.73 67.523 62.272 75.026 70.616 9.38 11.328 4.695 17.575-14.066 18.777-15.005 1.483-46.267 2.531-93.787 3.12-112.852 0-183.505-0.886-211.95-2.685-20.63-1.185-36.27 1.5-46.893 8.055-11.571 6.853-17.509 18.325-17.822 34.409-0.304 26.226 1.726 47.978 6.099 65.255 2.817 10.731 6.725 19.962 11.723 27.718 2.182 3.571 4.525 6.853 7.038 9.827 15.622 19.067 35.009 33.224 58.134 42.463 19.709 8.046 43.156 12.811 70.34 14.302 121.919 6.554 262.76 6.554 422.514 0 25.62-1.193 48.136-4.918 67.514-11.174 20.63-6.256 38.139-15.649 52.527-28.161 30.323-26.218 45.945-61.829 46.893-106.815-0.948-28.613-12.814-60.047-35.644-94.311-22.508-33.667-52.366-69.721-89.566-108.162-25.942-26.823-71.118-71.818-135.511-134.985-59.404-58.402-89.262-87.748-89.575-88.046-4.686-5.37-5.625-9.845-2.808-13.407 2.808-3.282 8.29-5.071 16.409-5.361 12.814-0.307 55.183 0 127.079 0.895 78.782 1.185 132.087 2.531 159.906 4.015 21.256 0.597 36.726-4.176 46.419-14.302zM532.581 718.416c0.63-2.981 1.098-7.763 1.413-14.339 0.639-17.909-0.162-35.519-2.358-52.839-1.584-11.342-4.257-22.837-8.028-34.486-3.78-11.939-7.857-20.898-12.267-26.868-12.591-17.311-26.117-30.156-40.589-38.517-19.511-11.051-46.087-17.764-79.746-20.147-12.915-0.897-31.787-1.196-56.635-0.897-23.282 0-39.491 0.444-48.616 1.341-0.315 0-0.936-19.856-1.89-59.56-0.315-52.557 0-102.714 0.954-150.472 0.621-27.773 1.404-55.239 2.358-82.405 0-0.897 0.144-1.793 0.468-2.682 0.63-13.144 2.673-24.494 6.129-34.050 4.095-10.735 10.062-19.549 17.936-26.415 16.046-15.227 38.555-22.845 67.498-22.845 36.179 0 67.633 2.238 94.38 6.713 2.196 0.299 4.248 0.606 6.129 0.905 11.961 1.187 20.924-0.905 26.909-6.269 0-0.299 0.144-0.453 0.468-0.453 3.15-2.981 5.661-7.609 7.551-13.878 1.251-4.774 2.196-12.102 2.826-21.949 0.954-9.856 1.422-17.918 1.422-24.186s-0.468-16.568-1.422-30.899c-0.936-17.619-5.337-33.589-13.203-47.92-8.19-14.928-20.618-28.362-37.286-40.302-7.236-5.081-15.11-9.702-23.597-13.878-33.992-15.834-81.015-24.186-141.106-25.091-49.084-0.598-96.126 7.618-141.115 24.63-45.304 17.32-82.266 46.733-110.903 88.23-14.471 20.599-25.325 44.785-32.561 72.55-6.912 26.27-11.322 59.116-13.212 98.521-5.985 142.128-5.985 306.921 0 494.424 0.936 21.496 3.618 39.712 8.019 54.632 4.401 14.339 11.484 28.815 21.239 43.445 18.872 28.371 42.632 52.847 71.26 73.447 19.502 14.032 42.002 26.27 67.489 36.723 23.282 9.548 48.607 14.928 75.975 16.124 13.536 1.196 23.921-1.341 31.148-7.609 6.291-5.679 8.973-18.362 8.028-38.073h0.468c-0.315-8.66-0.621-23.887-0.936-45.682-0.63-19.105-1.107-34.178-1.422-45.229-0.63-14.032-0.63-24.784 0-32.24 0.63-11.35 2.52-18.661 5.661-21.949 2.52-2.391 7.875-4.185 16.046-5.372 6.3-0.606 16.676-0.897 31.148-0.897 43.423-0.299 79.602 0 108.545 0.897 38.069 0.897 63.394-2.844 75.984-11.196 4.725-3.288 7.866-7.618 9.441-12.99zM1370.248 739.896c15.11-4.774 27.539-11.495 37.286-20.155 20.447-19.395 30.986-46.271 31.616-80.612-0.63-28.943-4.869-57.92-12.735-86.872-8.19-28.96-17.459-57.032-27.854-84.199-13.833-39.414-32.246-83.9-55.204-133.468-22.337-49.252-47.194-99.409-74.571-150.472-24.227-45.076-43.414-79.408-57.571-102.996-27.692-46.869-51.757-81.509-72.213-103.893-24.533-26.876-61.981-40.609-112.316-41.207-46.249-0.307-84.156 10.146-113.738 31.343-28.313 20.001-54.106 48.372-77.388 85.087-38.384 56.733-75.678 124.364-111.857 202.875-35.864 78.229-67.642 160.344-95.325 246.319-23.921 73.746-41.066 138.831-51.442 195.257-2.826 15.236 0.621 27.32 10.377 36.271 9.441 8.361 24.074 13.596 43.891 15.68 13.842 1.196 28.475 1.64 43.891 1.349 9.126-0.299 23.75-0.743 43.891-1.349 33.029-1.187 60.721-7.464 83.058-18.806 41.219-20.898 68.596-53.001 82.113-96.292 3.141-11.043 9.126-33.734 17.936-68.066 7.866-30.156 14.948-54.786 21.239-73.891 16.991-50.764 34.442-98.085 52.387-141.974 18.242-44.179 34.136-78.374 47.662-102.561 18.872 32.855 35.396 69.125 49.552 108.829 14.48 39.712 31.139 93.303 50.020 160.78 5.346 19.711 19.826 73.293 43.423 160.78 6.291 22.692 14.939 39.405 25.955 50.149 11.331 11.051 27.539 18.071 48.607 21.052 13.527 1.793 26.909 2.536 40.112 2.238 11.655 0 25.019-0.743 40.112-2.238 20.141-2.391 36.503-5.372 49.084-8.959z" />
<glyph unicode="&#xe929;" glyph-name="navarr-left" horiz-adv-x="352" d="M350.595 5.74l-106.189-69.74-244.406 512 244.406 512 106.189-69.74-181.729-442.26 181.729-442.26z" />
<glyph unicode="&#xe92a;" glyph-name="navarr-right" horiz-adv-x="352" d="M0 5.74l106.189-69.74 244.406 512-244.406 512-106.189-69.74 181.729-442.26-181.729-442.26z" />
<glyph unicode="&#xe92b;" glyph-name="navarr-up" horiz-adv-x="2894" d="M236.626-17.524l-194.059 295.482 1424.696 680.087 1424.696-680.087-194.059-295.482-1230.637 505.68-1230.637-505.68z" />
</font>
</defs>
</svg>
